<?xml version="1.0" standalone="no"?>
<!DOCTYPE svg PUBLIC "-//W3C//DTD SVG 20010904//EN"
 "http://www.w3.org/TR/2001/REC-SVG-20010904/DTD/svg10.dtd">
<svg version="1.0" xmlns="http://www.w3.org/2000/svg"
 width="512.000000pt" height="512.000000pt" viewBox="0 0 512.000000 512.000000"
 preserveAspectRatio="xMidYMid meet">

<g transform="translate(0.000000,512.000000) scale(0.100000,-0.100000)"
fill="#000000" stroke="none">
<path d="M2065 4560 c-34 -13 -48 -38 -56 -97 -10 -74 -52 -140 -113 -178
l-49 -30 -331 -6 c-369 -7 -392 -10 -531 -78 -180 -89 -314 -243 -380 -436
-18 -54 -55 -288 -80 -510 -85 -763 -83 -1569 6 -2320 35 -293 38 -313 67
-335 34 -27 68 -25 99 6 29 29 29 9 -6 289 -51 404 -72 754 -72 1220 0 467 16
757 67 1184 37 313 57 412 100 501 48 98 161 213 255 259 121 59 145 62 504
70 l330 6 60 28 c116 54 204 170 224 297 10 62 4 97 -20 117 -22 17 -52 22
-74 13z"/>
<path d="M3000 4557 c-42 -21 -53 -57 -40 -129 23 -129 109 -242 224 -295 l61
-28 330 -6 c359 -8 383 -11 505 -70 93 -46 205 -160 254 -259 42 -86 56 -154
90 -423 56 -441 76 -771 77 -1252 0 -476 -21 -825 -72 -1230 -35 -280 -35
-260 -6 -289 32 -32 68 -33 101 -3 23 20 28 37 45 172 121 925 118 1842 -9
2755 -12 80 -30 176 -41 215 -60 202 -195 363 -384 456 -139 68 -162 71 -531
78 l-331 6 -49 30 c-62 39 -103 104 -113 179 -11 81 -57 120 -111 93z"/>
<path d="M1244 3414 c-50 -53 -147 -204 -208 -324 -154 -302 -220 -574 -220
-905 0 -178 2 -195 27 -278 53 -172 143 -316 268 -430 l69 -63 15 -170 c18
-201 41 -412 61 -549 12 -85 18 -103 40 -122 27 -25 54 -29 84 -13 41 22 43
41 16 253 -24 189 -56 499 -52 504 1 1 31 -9 68 -22 372 -135 800 -10 1034
302 33 43 70 99 84 126 14 26 27 47 30 47 3 -1 28 -40 55 -87 58 -99 168 -218
264 -282 244 -165 556 -205 829 -106 36 13 67 23 68 22 4 -4 -27 -308 -47
-462 -11 -88 -23 -181 -26 -207 -5 -41 -2 -49 20 -72 32 -32 68 -33 102 -3 23
20 27 36 45 167 23 173 46 390 59 554 l9 118 70 64 c126 115 216 259 269 431
25 83 27 99 27 278 -1 333 -67 603 -220 905 -61 120 -158 271 -208 324 -39 42
-84 48 -116 16 -36 -36 -36 -67 0 -118 222 -313 330 -579 375 -920 47 -356
-19 -590 -221 -783 -84 -80 -169 -131 -289 -172 -83 -28 -101 -31 -225 -31
-115 -1 -146 3 -210 22 -264 84 -453 277 -525 537 -22 84 -30 270 -16 390 25
214 65 363 153 569 50 117 50 119 35 152 -20 40 -59 54 -96 33 -31 -17 -93
-136 -135 -259 -16 -47 -33 -96 -38 -110 -8 -21 -13 -12 -42 75 -46 137 -109
269 -137 288 -29 21 -58 22 -86 2 -38 -27 -37 -63 2 -150 150 -328 213 -742
150 -985 -66 -254 -253 -451 -510 -537 -69 -23 -98 -26 -210 -27 -224 -2 -376
57 -534 208 -196 187 -263 429 -216 776 47 348 152 607 375 922 36 51 36 82 0
118 -32 32 -77 26 -116 -16z"/>
<path d="M1422 2509 c-65 -12 -141 -58 -179 -108 -66 -87 -80 -210 -34 -304
27 -54 455 -565 486 -579 13 -6 35 -8 49 -4 33 8 462 517 495 589 50 106 26
235 -61 324 -56 57 -123 85 -208 85 -82 0 -140 -23 -203 -81 l-44 -40 -47 44
c-67 62 -167 91 -254 74z m117 -163 c15 -8 50 -41 77 -73 63 -75 73 -82 109
-83 25 0 43 13 105 81 70 76 78 81 124 86 59 7 107 -15 136 -62 25 -41 26
-111 2 -146 -20 -30 -363 -439 -368 -439 -1 0 -85 97 -185 216 -108 129 -188
232 -195 254 -13 39 -9 74 16 119 28 53 120 77 179 47z"/>
<path d="M3093 2509 c-182 -35 -290 -241 -212 -406 33 -71 462 -581 496 -589
13 -4 35 -2 48 4 31 14 460 526 485 579 138 293 -237 556 -473 331 l-40 -38
-44 41 c-74 68 -167 96 -260 78z m116 -163 c15 -8 56 -47 91 -85 52 -60 67
-71 94 -71 37 1 47 8 110 83 27 32 62 65 77 73 63 32 152 6 184 -55 18 -35 20
-103 3 -134 -12 -23 -354 -433 -368 -442 -7 -4 -332 374 -372 434 -22 32 -23
102 -3 140 31 62 121 89 184 57z"/>
</g>
</svg>
